<svg width="96" height="66" viewBox="0 0 96 66" fill="none" xmlns="http://www.w3.org/2000/svg">
<g clip-path="url(#clip0_50_25)">
<path d="M62.832 43.0897L43.0927 8.7844L57.2734 0.63916L81.8192 43.0897H62.832Z" fill="#667085"/>
<path d="M10.2549 38.2834L24.4357 30.0831L31.9388 43.0898H13.0066L10.2549 38.2834Z" fill="#667085"/>
<path d="M38.0845 64.9754H42.1204V48.6483H38.0845V64.9754Z" fill="#667085"/>
<path d="M88.6619 65.3608C84.149 65.3608 81.4339 63.0309 81.2871 59.7472H85.5432C85.5432 60.7745 86.1853 62.2788 88.937 62.3338C90.7716 62.3338 91.6338 61.2515 91.6338 60.4443C91.5237 59.1601 89.9093 59.05 88.1849 58.7749C86.4605 58.4997 84.9928 58.1878 83.9288 57.6375C82.5713 56.9404 81.654 55.4361 81.654 53.7116C81.654 50.7947 84.1856 48.4833 88.405 48.4833C92.496 48.4833 95.0827 50.6296 95.3578 53.8217H91.2485C91.2118 52.9595 91.0467 51.6019 88.6252 51.6019C86.9924 51.6019 85.9101 51.9321 85.8184 53.0696C85.8184 54.7389 89.2122 54.6289 91.8539 55.326C94.3855 55.9681 95.9999 57.5458 95.9999 59.7472C95.9999 63.8014 92.7161 65.3608 88.6619 65.3608Z" fill="#667085"/>
<path d="M26.8756 23.7173L41.0564 15.5354L56.9616 43.0897H42.1204V47.1257H38.0845V43.0714L26.8756 23.7173Z" fill="#667085"/>
<path fill-rule="evenodd" clip-rule="evenodd" d="M27.2425 65.3607C22.5461 65.3607 18.7303 61.5265 18.7303 56.8852C18.7303 52.1889 22.5461 48.4832 27.2425 48.4832C29.022 48.4832 30.6363 48.9602 32.0489 49.9324V43.0897H36.0848V64.9754H32.0489V63.8931C30.6363 64.8103 29.022 65.3607 27.2425 65.3607ZM22.6012 56.8852C22.6012 59.4169 24.7659 61.5265 27.3526 61.5265C29.8842 61.5265 32.0489 59.4169 32.0489 56.8852C32.0489 54.3536 29.8842 52.1889 27.3526 52.1889C24.7659 52.1889 22.6012 54.3536 22.6012 56.8852Z" fill="#667085"/>
<path fill-rule="evenodd" clip-rule="evenodd" d="M57.0717 43.0897H61.0526V64.9754H57.0717V63.8931C55.7142 64.8103 54.0448 65.3607 52.2103 65.3607C47.569 65.3607 43.7532 61.5265 43.7532 56.8852C43.7532 52.1889 47.569 48.4832 52.2103 48.4832C54.0448 48.4832 55.6591 48.9602 57.0717 49.9324V43.0897ZM47.679 56.8852C47.679 59.4169 49.8437 61.5265 52.3203 61.5265C54.907 61.5265 57.0717 59.4169 57.0717 56.8852C57.0717 54.3536 54.907 52.1889 52.3203 52.1889C49.8437 52.1889 47.679 54.3536 47.679 56.8852Z" fill="#667085"/>
<path fill-rule="evenodd" clip-rule="evenodd" d="M70.8673 65.3608C66.2443 65.3608 62.4102 61.5266 62.4102 56.8853C62.4102 52.189 66.2443 48.4833 70.8673 48.4833C72.6467 48.4833 74.3161 48.9602 75.6737 49.9325V48.63H79.7096V64.9755H75.6737V63.8932C74.3161 64.8104 72.7018 65.3608 70.8673 65.3608ZM66.336 56.8853C66.336 59.4169 68.5007 61.5266 71.0324 61.5266C73.564 61.5266 75.6737 59.4169 75.6737 56.8853C75.6737 54.3537 73.564 52.189 71.0324 52.189C68.5007 52.189 66.336 54.3537 66.336 56.8853Z" fill="#667085"/>
<path fill-rule="evenodd" clip-rule="evenodd" d="M3.88916 56.8853C3.88916 59.4169 6.05389 61.5266 8.58552 61.5266C11.1722 61.5266 13.3369 59.4169 13.3369 56.8853C13.3369 54.3537 11.1722 52.189 8.58552 52.189C6.05389 52.189 3.88916 54.3537 3.88916 56.8853ZM8.47544 65.3608C3.83413 65.3608 0 61.5266 0 56.8853C0 52.189 3.83413 48.4833 8.47544 48.4833C10.2549 48.4833 11.9243 48.9602 13.3369 49.9325V48.63H17.3178V64.9755H13.3369V63.8932C11.9794 64.8104 10.31 65.3608 8.47544 65.3608Z" fill="#667085"/>
</g>
<defs>
<clipPath id="clip0_50_25">
<rect width="96" height="64.7216" fill="white" transform="translate(0 0.63916)"/>
</clipPath>
</defs>
</svg>
